<svg width="115" height="17" viewBox="0 0 115 17" fill="none" xmlns="http://www.w3.org/2000/svg">
<path d="M18.9592 6.40492C18.8523 6.10212 18.5537 5.88788 18.2022 5.88788H12.131L10.2552 0.461983C10.1227 0.187306 9.83365 0 9.49873 0C9.16381 0 8.87409 0.187306 8.7442 0.457195L8.74229 0.461983L6.86649 5.88788H0.795912C0.356568 5.88788 0 6.223 0 6.63591C0 6.88366 0.128619 7.10388 0.326005 7.23972L0.328552 7.24092L5.23965 10.5939L3.36384 16.0204C3.33901 16.0898 3.325 16.1694 3.325 16.252C3.325 16.6649 3.68157 17 4.12091 17C4.29665 17 4.45901 16.9467 4.59082 16.8558L4.58827 16.857L9.5 13.5028L14.4111 16.857C14.5403 16.9461 14.7027 16.9994 14.8785 16.9994C15.3184 16.9994 15.675 16.6643 15.675 16.2508C15.675 16.1682 15.661 16.0886 15.6342 16.0144L15.6362 16.0198L13.7597 10.5945L18.6721 7.24092C18.872 7.10268 19 6.88306 19 6.63472C19 6.55273 18.986 6.47314 18.9599 6.39954L18.9618 6.40492H18.9592Z" fill="#F8D20E"/>
<path d="M42.9592 6.40492C42.8523 6.10212 42.5537 5.88788 42.2022 5.88788H36.131L34.2552 0.461983C34.1227 0.187306 33.8336 0 33.4987 0C33.1638 0 32.8741 0.187306 32.7442 0.457195L32.7423 0.461983L30.8665 5.88788H24.7959C24.3566 5.88788 24 6.223 24 6.63591C24 6.88366 24.1286 7.10388 24.326 7.23972L24.3286 7.24092L29.2396 10.5939L27.3638 16.0204C27.339 16.0898 27.325 16.1694 27.325 16.252C27.325 16.6649 27.6816 17 28.1209 17C28.2966 17 28.459 16.9467 28.5908 16.8558L28.5883 16.857L33.5 13.5028L38.4111 16.857C38.5403 16.9461 38.7027 16.9994 38.8785 16.9994C39.3184 16.9994 39.675 16.6643 39.675 16.2508C39.675 16.1682 39.661 16.0886 39.6342 16.0144L39.6362 16.0198L37.7597 10.5945L42.6721 7.24092C42.872 7.10268 43 6.88306 43 6.63472C43 6.55273 42.986 6.47314 42.9599 6.39954L42.9618 6.40492H42.9592Z" fill="#F8D20E"/>
<path d="M66.9592 6.40492C66.8523 6.10212 66.5537 5.88788 66.2022 5.88788H60.131L58.2552 0.461983C58.1227 0.187306 57.8336 0 57.4987 0C57.1638 0 56.8741 0.187306 56.7442 0.457195L56.7423 0.461983L54.8665 5.88788H48.7959C48.3566 5.88788 48 6.223 48 6.63591C48 6.88366 48.1286 7.10388 48.326 7.23972L48.3286 7.24092L53.2396 10.5939L51.3638 16.0204C51.339 16.0898 51.325 16.1694 51.325 16.252C51.325 16.6649 51.6816 17 52.1209 17C52.2966 17 52.459 16.9467 52.5908 16.8558L52.5883 16.857L57.5 13.5028L62.4111 16.857C62.5403 16.9461 62.7027 16.9994 62.8785 16.9994C63.3184 16.9994 63.675 16.6643 63.675 16.2508C63.675 16.1682 63.661 16.0886 63.6342 16.0144L63.6362 16.0198L61.7597 10.5945L66.6721 7.24092C66.872 7.10268 67 6.88306 67 6.63472C67 6.55273 66.986 6.47314 66.9599 6.39954L66.9618 6.40492H66.9592Z" fill="#F8D20E"/>
<path d="M90.9592 6.40492C90.8523 6.10212 90.5537 5.88788 90.2022 5.88788H84.131L82.2552 0.461983C82.1227 0.187306 81.8336 0 81.4987 0C81.1638 0 80.8741 0.187306 80.7442 0.457195L80.7423 0.461983L78.8665 5.88788H72.7959C72.3566 5.88788 72 6.223 72 6.63591C72 6.88366 72.1286 7.10388 72.326 7.23972L72.3286 7.24092L77.2396 10.5939L75.3638 16.0204C75.339 16.0898 75.325 16.1694 75.325 16.252C75.325 16.6649 75.6816 17 76.1209 17C76.2966 17 76.459 16.9467 76.5908 16.8558L76.5883 16.857L81.5 13.5028L86.4111 16.857C86.5403 16.9461 86.7027 16.9994 86.8785 16.9994C87.3184 16.9994 87.675 16.6643 87.675 16.2508C87.675 16.1682 87.661 16.0886 87.6342 16.0144L87.6362 16.0198L85.7597 10.5945L90.6721 7.24092C90.872 7.10268 91 6.88306 91 6.63472C91 6.55273 90.986 6.47314 90.9599 6.39954L90.9618 6.40492H90.9592Z" fill="#F8D20E"/>
<path d="M114.959 6.40492C114.852 6.10212 114.554 5.88788 114.202 5.88788H108.131L106.255 0.461983C106.123 0.187306 105.834 0 105.499 0C105.164 0 104.874 0.187306 104.744 0.457195L104.742 0.461983L102.866 5.88788H96.7959C96.3566 5.88788 96 6.223 96 6.63591C96 6.88366 96.1286 7.10388 96.326 7.23972L96.3286 7.24092L101.24 10.5939L99.3638 16.0204C99.339 16.0898 99.325 16.1694 99.325 16.252C99.325 16.6649 99.6816 17 100.121 17C100.297 17 100.459 16.9467 100.591 16.8558L100.588 16.857L105.5 13.5028L110.411 16.857C110.54 16.9461 110.703 16.9994 110.878 16.9994C111.318 16.9994 111.675 16.6643 111.675 16.2508C111.675 16.1682 111.661 16.0886 111.634 16.0144L111.636 16.0198L109.76 10.5945L114.672 7.24092C114.872 7.10268 115 6.88306 115 6.63472C115 6.55273 114.986 6.47314 114.96 6.39954L114.962 6.40492H114.959Z" fill="#F8D20E"/>
</svg>
